<svg id="Cmaj" class="chords" viewBox="0 0 240 110" preserveAspectRatio="xMidYMid slice" width="720" height="330">
<rect x="0" y="0" width="240" height="110" fill="#ffffff"/>    
<rect x="20" y="20" width="200" height="60" fill="#ffffff" stroke="maroon" stroke-width="0.5"/>    
<line x1="19" y1="20" x2="19" y2="80" fill="transparent" stroke="maroon" stroke-width="1"/>    
<line x1="60" y1="20" x2="60" y2="80" fill="transparent" stroke="black" stroke-width="0.5"/>    
<line x1="100" y1="20" x2="100" y2="80" fill="transparent" stroke="black" stroke-width="0.5"/>    
<line x1="140" y1="20" x2="140" y2="80" fill="transparent" stroke="black" stroke-width="0.5"/>    
<line x1="180" y1="20" x2="180" y2="80" fill="transparent" stroke="black" stroke-width="0.5"/>    
<line x1="20" y1="25" x2="220" y2="25" fill="transparent" stroke="black" stroke-width="0.25"/>    
<line x1="20" y1="35" x2="220" y2="35" fill="transparent" stroke="black" stroke-width="0.35"/>    
<line x1="20" y1="45" x2="220" y2="45" fill="transparent" stroke="black" stroke-width="0.45"/>    
<line x1="20" y1="55" x2="220" y2="55" fill="transparent" stroke="black" stroke-width="0.55"/>    
<line x1="20" y1="65" x2="220" y2="65" fill="transparent" stroke="black" stroke-width="0.65"/>    
<line x1="20" y1="75" x2="220" y2="75" fill="transparent" stroke="black" stroke-width="0.75"/>    
<text x="100" y="100" font-family="Verdana" font-size="8">Cmaj</text>
<circle cx="10" cy="25" r="2" stroke="green" fill="transparent"/>    
<circle cx="40" cy="35" r="5" fill="orange" title="1"/>    
<text x="39" y="36" font-family="Verdana" font-size="4">1</text>
<circle cx="10" cy="45" r="2" stroke="green" fill="transparent"/>    
<circle cx="80" cy="55" r="5" fill="orange" title="2"/>    
<text x="79" y="56" font-family="Verdana" font-size="4">2</text>
<circle cx="120" cy="65" r="5" fill="orange" title="3"/>    
<text x="119" y="66" font-family="Verdana" font-size="4">3</text>
<circle cx="10" cy="75" r="2" stroke="transparent" fill="transparent" title="Ne pas jouer"/>    
<line x1="8" y1="77" x2="12" y2="73" fill="transparent" stroke="black" stroke-width="0.5"/>    
<line x1="12" y1="77" x2="8" y2="73" fill="transparent" stroke="black" stroke-width="0.5"/>    
</svg>
