<svg id="Fmaj" class="chords" viewBox="0 0 240 110" preserveAspectRatio="xMidYMid slice" width="660" height="330">
<rect x="0" y="0" width="240" height="110" fill="#ffffff"/>
<rect x="20" y="20" width="200" height="60" fill="#ffffff" stroke="maroon" stroke-width="0.5"/>
<line x1="19" y1="20" x2="19" y2="80" fill="transparent" stroke="maroon" stroke-width="1"/>
<line x1="60" y1="20" x2="60" y2="80" fill="transparent" stroke="black" stroke-width="0.5"/>
<line x1="100" y1="20" x2="100" y2="80" fill="transparent" stroke="black" stroke-width="0.5"/>
<line x1="140" y1="20" x2="140" y2="80" fill="transparent" stroke="black" stroke-width="0.5"/>
<line x1="180" y1="20" x2="180" y2="80" fill="transparent" stroke="black" stroke-width="0.5"/>
<line x1="20" y1="25" x2="220" y2="25" fill="transparent" stroke="black" stroke-width="0.25"/>
<line x1="20" y1="35" x2="220" y2="35" fill="transparent" stroke="black" stroke-width="0.35"/>
<line x1="20" y1="45" x2="220" y2="45" fill="transparent" stroke="black" stroke-width="0.45"/>
<line x1="20" y1="55" x2="220" y2="55" fill="transparent" stroke="black" stroke-width="0.55"/>
<line x1="20" y1="65" x2="220" y2="65" fill="transparent" stroke="black" stroke-width="0.65"/>
<line x1="20" y1="75" x2="220" y2="75" fill="transparent" stroke="black" stroke-width="0.75"/>
<text x="33" y="10" font-family="Verdana" font-size="4" fill="#999999">Case n°1</text>
<text x="73" y="10" font-family="Verdana" font-size="4" fill="#999999">Case n°2</text>
<text x="113" y="10" font-family="Verdana" font-size="4" fill="#999999">Case n°3</text>
<text x="153" y="10" font-family="Verdana" font-size="4" fill="#999999">Case n°4</text>
<text x="193" y="10" font-family="Verdana" font-size="4" fill="#999999">Case n°5</text>
<text x="100" y="100" font-family="Verdana" font-size="8">Fmaj</text>
<rect x="35" y="20" width="10" height="60" fill="orange" rx="5" ry="5" title="1"/>
<text x="39" y="50" font-family="Verdana" font-size="4">1</text>
<circle cx="80" cy="45" r="5" fill="orange" title="2"/>
<text x="79" y="46" font-family="Verdana" font-size="4">2</text>
<circle cx="120" cy="55" r="5" fill="orange" title="4"/>
<text x="119" y="56" font-family="Verdana" font-size="4">4</text>
<circle cx="120" cy="65" r="5" fill="orange" title="3"/>
<text x="119" y="66" font-family="Verdana" font-size="4">3</text>
</svg>
